<?xml version="1.0" encoding="UTF-8"?>
<svg version="1.1" xmlns="http://www.w3.org/2000/svg" width="256" height="256">
  <path d="M0 0 C0.88913973 -0.0060911 1.77827946 -0.01218221 2.69436282 -0.01845789 C5.66207041 -0.03505469 8.62934737 -0.03031677 11.59709167 -0.0255127 C13.72965947 -0.03285499 15.86222329 -0.04144169 17.99478149 -0.05117798 C23.78001311 -0.07338691 29.56510226 -0.07632492 35.35037065 -0.07443047 C40.18375559 -0.07431072 45.01711039 -0.08287647 49.85048693 -0.09120798 C61.25627669 -0.11044024 72.66199327 -0.11332667 84.0677948 -0.10656738 C95.82453431 -0.09992815 107.58095996 -0.12278687 119.33763582 -0.15988111 C129.43977884 -0.19059562 139.541821 -0.20193618 149.64400977 -0.1980443 C155.67387991 -0.19597845 161.70350585 -0.20143095 167.73333168 -0.22593689 C173.40600638 -0.2482298 179.07817157 -0.24630453 184.75084877 -0.22600937 C186.82846982 -0.22260376 188.90612534 -0.22766895 190.9836998 -0.24199295 C212.86181793 -0.38238148 212.86181793 -0.38238148 220.83010578 7.1791153 C225.97744228 12.64390918 228.32140585 18.06698952 228.34379578 25.61639404 C228.34988688 26.32091949 228.35597798 27.02544494 228.36225367 27.75131965 C228.37883599 30.10028916 228.37411482 32.44871374 228.36930847 34.79772949 C228.37665174 36.48680685 228.38523873 38.17587919 228.39497375 39.86494446 C228.41717516 44.44573754 228.420121 49.02635064 228.41822624 53.60719013 C228.41810644 57.43645562 228.42667488 61.26568313 228.43500376 65.09493804 C228.45423416 74.13375243 228.45712351 83.17247447 228.45036316 92.21130371 C228.44372757 101.52151921 228.4665681 110.831338 228.50367689 120.14147305 C228.53441849 128.14595353 228.54572894 136.15030671 228.54184008 144.154845 C228.53977661 148.93055339 228.54518907 153.70595327 228.56973267 158.48160553 C228.5920701 162.9764976 228.59006417 167.47074737 228.56980515 171.96564293 C228.56640705 173.6094863 228.57143217 175.25337348 228.58578873 176.89715767 C228.66667244 186.84991704 228.27759349 195.5393399 221.22327423 203.29120255 C214.87344834 209.45818133 207.35838963 210.84558421 198.84098816 210.77536011 C197.95774998 210.78004008 197.0745118 210.78472005 196.16450882 210.78954184 C193.22285424 210.80144986 190.28166914 210.79205102 187.3400116 210.78259277 C185.22375722 210.78666033 183.10750496 210.79200325 180.99125671 210.79852295 C175.25578589 210.81218034 169.52047726 210.80690433 163.78500366 210.79738569 C157.77761911 210.78978098 151.77024827 210.79683697 145.76286316 210.80154419 C135.67527274 210.80699936 125.58774825 210.79981634 115.50016785 210.78552246 C103.84398235 210.76919645 92.18795429 210.77448513 80.53177261 210.79100168 C70.51711811 210.80462329 60.50251096 210.80653288 50.48785019 210.79868567 C44.50954865 210.79401289 38.53132106 210.7933735 32.55302429 210.80329514 C26.93214563 210.81197228 21.31146961 210.80592901 15.69061279 210.78861237 C13.6298964 210.78465155 11.56916291 210.78577461 9.50845337 210.79240036 C6.69133505 210.80062186 3.87486243 210.79028682 1.05778503 210.77536011 C0.24609989 210.78205227 -0.56558525 210.78874444 -1.40186691 210.7956394 C-8.51034064 210.7227933 -14.84389951 209.03312041 -20.3006134 204.20690918 C-20.92451965 203.67710449 -21.5484259 203.1472998 -22.1912384 202.60144043 C-29.15768467 194.33244433 -28.62286647 185.86157483 -28.56819153 175.64050293 C-28.57361716 173.93803307 -28.58074229 172.2355679 -28.58943176 170.53311157 C-28.60761565 165.92563923 -28.60061805 161.31852649 -28.58791542 156.71104813 C-28.57776213 151.88080147 -28.58718756 147.05058483 -28.59346008 142.22033691 C-28.60072971 134.11001072 -28.59116676 125.9998304 -28.57209778 117.88952637 C-28.55033036 108.52360181 -28.55738221 99.15802561 -28.5794034 89.79210949 C-28.59757692 81.73920563 -28.60010618 73.68640641 -28.58964872 65.63348866 C-28.58342452 60.82887376 -28.58254858 56.0244224 -28.59579468 51.21981812 C-28.60738099 46.70197177 -28.59927685 42.18457294 -28.57621765 37.66677475 C-28.57094538 36.01242693 -28.57241889 34.3580412 -28.58126831 32.70370865 C-28.62724023 23.23384541 -28.6524641 15.75532803 -22.15608215 8.18737793 C-21.52315247 7.65757324 -20.89022278 7.12776855 -20.2381134 6.58190918 C-19.61291809 6.03921387 -18.98772278 5.49651855 -18.34358215 4.93737793 C-12.24302818 0.83223514 -7.18792118 -0.04664553 0 0 Z " fill="#2A7B59" transform="translate(28.050613403320313,21.6055908203125)" />
  <path d="M0 0 C15.35938153 1.42216496 28.47939147 7.54741252 39 19 C47.31486729 30.13346637 51.44120484 41.10204763 51 55 C45.72 55 40.44 55 35 55 C34.4121875 51.596875 34.4121875 51.596875 33.8125 48.125 C31.79733788 37.49582682 27.82294174 28.24470225 18.75 21.875 C12.66717235 17.98958135 7.18681056 16.19780176 0 15 C0 10.05 0 5.1 0 0 Z " fill="#F9FBFA" transform="translate(103,64)" />
  <path d="M0 0 C5.94 0 11.88 0 18 0 C19.27385499 3.93654475 20.54415239 7.87418071 21.8125 11.8125 C22.16892578 12.91271484 22.52535156 14.01292969 22.89257812 15.14648438 C29 34.14112672 29 34.14112672 29 39 C25.04 39 21.08 39 17 39 C16.67 38.34 16.34 37.68 16 37 C12.72444392 36.52998967 12.72444392 36.52998967 8.9375 36.375 C7.64714844 36.30023438 6.35679687 36.22546875 5.02734375 36.1484375 C4.02832031 36.09945312 3.02929688 36.05046875 2 36 C2 36.99 2 37.98 2 39 C-1.96 39 -5.92 39 -10 39 C-9.35700096 33.63696401 -8.18016323 28.62336795 -6.6875 23.4375 C-6.46747314 22.65971191 -6.24744629 21.88192383 -6.02075195 21.08056641 C-5.35159486 18.71909099 -4.67625962 16.35944993 -4 14 C-3.59345643 12.57169811 -3.18719142 11.14331689 -2.78125 9.71484375 C-1.85849813 6.47532558 -0.92991165 3.2374702 0 0 Z " fill="#F7FAF9" transform="translate(181,136)" />
  <path d="M0 0 C0 4.62 0 9.24 0 14 C-1.959375 14.515625 -3.91875 15.03125 -5.9375 15.5625 C-18.02366975 19.31972234 -23.91652679 26.41640689 -29.75 37.25 C-31.5847372 42.75421159 -32.22956775 48.25139011 -33 54 C-38.61 54 -44.22 54 -50 54 C-49.53811608 39.98952105 -45.94943326 28.89971709 -37 18 C-36.37738281 17.22914062 -35.75476562 16.45828125 -35.11328125 15.6640625 C-26.07244925 5.57277193 -13.39768157 0 0 0 Z " fill="#F8FBFA" transform="translate(87,65)" />
  <path d="M0 0 C5.28 0 10.56 0 16 0 C15.41033345 11.59677541 11.00967754 21.82238095 4 31 C3.56171875 31.61359375 3.1234375 32.2271875 2.671875 32.859375 C-4.38425999 42.02423998 -16.63599575 48.29037104 -28 50 C-30.31 50 -32.62 50 -35 50 C-35 45.38 -35 40.76 -35 36 C-33.040625 35.46375 -31.08125 34.9275 -29.0625 34.375 C-18.74020238 31.15838826 -11.72565175 26.27436299 -6 17 C-3.30054507 11.48298899 -1.69054268 5.91689937 0 0 Z " fill="#F9FBFA" transform="translate(138,131)" />
  <path d="M0 0 C5.28 0 10.56 0 16 0 C16.53625 1.93875 17.0725 3.8775 17.625 5.875 C21.26881174 17.59635246 27.02432454 26.48383094 38.0625 32.3125 C41.62269045 33.95512252 45.20028029 35.05007007 49 36 C49 40.62 49 45.24 49 50 C33.59870917 49.39205431 22.89813536 43.2605617 12.3125 32.375 C4.3946766 23.28057696 0 12.01552108 0 0 Z " fill="#F9FBFA" transform="translate(38,131)" />
  <path d="M0 0 C-1.71697497 4.19934841 -4.66657561 7.26429178 -7.625 10.625 C-8.7078584 11.87819201 -9.78988612 13.13210224 -10.87109375 14.38671875 C-12.75214623 16.56234576 -14.64019275 18.73094427 -16.53515625 20.89453125 C-20.51216738 25.59332298 -23 28.72716327 -23 35 C-26.96 35 -30.92 35 -35 35 C-35 23.78 -35 12.56 -35 1 C-31.04 1 -27.08 1 -23 1 C-23 4.3 -23 7.6 -23 11 C-22.34 11 -21.68 11 -21 11 C-20.773125 10.29875 -20.54625 9.5975 -20.3125 8.875 C-15.6386575 -1.36294072 -10.75487883 -0.78587748 0 0 Z " fill="#F9FBFB" transform="translate(206,71)" />
  <path d="M0 0 C3.46725961 1.1557532 3.71790649 1.71152851 5.48046875 4.74609375 C5.92197266 5.50083984 6.36347656 6.25558594 6.81835938 7.03320312 C7.27017578 7.82662109 7.72199219 8.62003906 8.1875 9.4375 C8.65091797 10.22705078 9.11433594 11.01660156 9.59179688 11.83007812 C13 17.71788706 13 17.71788706 13 20 C8.05 20 3.1 20 -2 20 C-7.04760341 11.62836507 -7.04760341 11.62836507 -6.84375 8.9375 C-5.84712559 6.64895506 -4.60941558 5.09977894 -2.9375 3.25 C-2.38964844 2.63640625 -1.84179688 2.0228125 -1.27734375 1.390625 C-0.85582031 0.93171875 -0.43429688 0.4728125 0 0 Z " fill="#F6F9F8" transform="translate(196,86)" />
  <path d="M0 0 C1.84790538 3.31016094 2.74541487 6.57173491 3.625 10.25 C3.88539063 11.32765625 4.14578125 12.4053125 4.4140625 13.515625 C4.60742188 14.33546875 4.80078125 15.1553125 5 16 C2.03 16 -0.94 16 -4 16 C-3.47606294 10.13190493 -2.23891142 5.45126259 0 0 Z " fill="#478D70" transform="translate(190,147)" />
  <path d="M0 0 C5.28 0 10.56 0 16 0 C15.67 0.99 15.34 1.98 15 3 C9.72 3 4.44 3 -1 3 C-0.67 2.01 -0.34 1.02 0 0 Z " fill="#C1D8CF" transform="translate(196,65)" />
  <path d="M0 0 C4.29 0 8.58 0 13 0 C13 0.99 13 1.98 13 3 C9.04 3 5.08 3 1 3 C0.67 2.01 0.34 1.02 0 0 Z " fill="#E5EFEB" transform="translate(199,179)" />
  <path d="M0 0 C3.96 0 7.92 0 12 0 C12 0.99 12 1.98 12 3 C8.04 3 4.08 3 0 3 C0 2.01 0 1.02 0 0 Z " fill="#E6EFEB" transform="translate(169,179)" />
  <path d="M0 0 C0.99 0.33 1.98 0.66 3 1 C2.2575 1.721875 1.515 2.44375 0.75 3.1875 C-1.99895013 5.87328013 -1.99895013 5.87328013 -4 8.6875 C-6.19539877 11.22592982 -7.82770221 12.03068679 -11 13 C-7.61227103 8.30840284 -4.21814817 3.9700218 0 0 Z " fill="#539479" transform="translate(195,85)" />
</svg>